**ABCDEFGHIJKLMNOPQRSTUVWXYZabcdefghijklmnopqrstuvwxyz**************************
**PARASOLID !"#$%&'()*+,-./:;<=>?@[\]^_`{|}~0123456789**************************
**PART1;
MC=AMD64;
MC_MODEL=Intel64 Family 6 Model 37 Stepping 5, GenuineIntel;
MC_ID=unknown;
OS=Windows_NT;
OS_RELEASE=unknown;
FRU=Parasolid Version 24.1, build 257,  2-12-2013;
APPL=SolidWorks 2013-2013086;
SITE=;
USER=unknown;
FORMAT=text;
GUISE=transmit;
KEY=makeProjectedPlanarWire;
FILE=makeProjectedPlanarWire.x_t;
DATE=Sun Dec 13 18:28:31 2015;
**PART2;
SCH=SCH_2401257_20000;
USFLD_SIZE=0;
**PART3;
**END_OF_HEADER*****************************************************************
T51 : TRANSMIT FILE created by modeller version 240125723 SCH_2401257_20000_1300
6189 0 12 27 CCCCCCCCCCCCCCCCCCCCCCCA16 index_map_offset0 0 1 dA9 index_map82 0
 A17 node_id_index_map82 0 A20 schema_embedding_map82 0 Z1 2325 0 0 0 0 0 0 1e3
 1e-8 0 2 0 1 0 3 1 3 4 5 6 7 8 9 0 0 0 0 13 255 3 289 0 1 0 10 0 0 7 10 50 255
 4 2 0 10 0 0 0 +0 .044 0 0 1 0 0 0 1 30 255 5 179 0 8 11 0 0 +0 .044 .039 1 0 0
 29 255 6 287 0 9 12 0 -.0685 .044 .039 19 255 7 288 0 1 0 0 3 V16 255 8 178 0 ?
13 0 14 5 0 0 1 18 255 9 285 0 15 0 16 6 ?1 17 255 15 0 0 0 0 9 17 18 0 19 +18 1
6 282 0 20 9 21 12 ?1 17 20 0 22 19 23 16 24 14 0 13 +18 21 279 0 23 16 25 26 ?1
 29 12 284 0 16 26 6 -.0033 .044 .039 29 26 281 0 21 27 12 -.0033 .044 .0368 29
 27 278 0 25 28 26 .0033 .044 .0368 18 25 276 0 29 21 30 27 ?1 29 28 272 0 30 31
 27 .0033 .044 .039 18 30 270 0 32 25 33 28 ?1 29 31 269 0 33 34 28 .0685 .044 .
039 18 33 267 0 35 30 36 31 ?1 29 34 266 0 36 37 31 .0685 .044 .0368 18 36 264 0
 38 33 39 34 ?1 29 37 263 0 39 40 34 .0718 .044 .0335 18 39 261 0 41 36 42 37 ?1
 29 40 260 0 42 43 37 .074 .044 .0335 18 42 258 0 44 39 45 40 ?1 29 43 257 0 45
 46 40 .074 .044 -.0335 18 45 255 0 47 42 48 43 ?1 29 46 254 0 48 49 43 .0718 .0
44 -.0335 18 48 252 0 50 45 51 46 ?1 29 49 251 0 51 52 46 .0685 .044 -.0368 18 5
1 249 0 53 48 54 49 ?1 29 52 248 0 54 55 49 .0685 .044 -.039 18 54 246 0 56 51 5
7 52 ?1 29 55 245 0 57 58 52 .0033 .044 -.039 18 57 243 0 59 54 60 55 ?1 29 58 2
39 0 60 61 55 .0033 .044 -.0368 18 60 237 0 62 57 63 58 ?1 29 61 236 0 63 64 58
 -.0033 .044 -.0368 18 63 234 0 65 60 66 61 ?1 29 64 230 0 66 67 61 -.0033 .044
 -.039 18 66 228 0 68 63 69 64 ?1 29 67 227 0 69 70 64 -.0685 .044 -.039 18 69 2
25 0 71 66 72 67 ?1 29 70 224 0 72 73 67 -.0685 .044 -.0368 18 72 222 0 74 69 75
 70 ?1 29 73 221 0 75 76 70 -.0718 .044 -.0335 18 75 219 0 77 72 78 73 ?1 29 76
 218 0 78 79 73 -.074 .044 -.0335 18 78 216 0 80 75 81 76 ?1 29 79 215 0 81 82 7
6 -.074 .044 .0335 18 81 213 0 83 78 84 79 ?1 29 82 212 0 84 85 79 -.0718 .044 .
0335 18 84 210 0 86 81 87 82 ?1 29 85 209 0 87 88 82 -.0685 .044 .0368 18 87 207
 0 17 84 89 85 ?1 29 88 206 0 89 90 85 -.076 .044 -.03585 18 89 204 0 91 87 92 8
8 ?1 29 90 203 0 92 93 88 -.07025 .044 -.041 18 92 201 0 94 89 95 90 ?1 29 93 20
0 0 95 96 90 .07025 .044 -.041 18 95 198 0 97 92 98 93 ?1 29 96 197 0 98 99 93 .
076 .044 -.03585 18 98 195 0 100 95 101 96 ?1 29 99 194 0 101 102 96 .076 .044 .
03525 18 101 192 0 103 98 104 99 ?1 29 102 191 0 104 105 99 .07025 .044 .041 18
 104 189 0 106 101 107 102 ?1 29 105 188 0 107 108 102 -.07025 .044 .041 18 107
 186 0 109 104 110 105 ?1 29 108 185 0 110 0 105 -.076 .044 .03525 18 110 183 0
 111 107 0 108 ?1 17 111 0 112 109 113 110 91 114 0 115 +15 255 112 6 0 111 10 2
2 17 109 0 112 106 111 107 115 116 0 117 +17 113 0 112 111 94 89 118 119 0 0 +17
 91 0 0 0 0 89 111 114 0 113 -16 114 8 0 ?111 116 0 120 0 0 1 17 115 0 0 0 0 110
 109 116 0 0 -16 116 13 0 ?109 121 114 122 0 0 1 16 121 18 0 ?106 123 116 124 0
 0 1 31 255 122 14 0 116 120 124 0 +-.07025 .044 .03525 0 1 0 0 0 1 .00575 30 12
0 9 0 114 0 122 0 +-.076 .044 0 0 0 1 30 124 19 0 121 122 125 0 +0 .044 .041 1 0
 0 31 125 24 0 123 124 126 0 +.07025 .044 .03525 0 1 0 0 0 1 .00575 16 123 23 0
 ?103 127 121 125 0 0 1 30 126 29 0 127 125 128 0 +.076 .044 0 0 0 -1 16 127 28
 0 ?100 129 123 126 0 0 1 31 128 34 0 129 126 130 0 +.070281381045039 .044 -.035
2500856328105 0 1 0 0 0 1 .00575 16 129 33 0 ?97 131 127 128 0 0 1 30 130 39 0 1
31 128 132 0 +-40497459083302e-31 .044 -.041 -1 0 987742904470781e-31 16 131 38
 0 ?94 119 129 130 0 0 1 31 132 44 0 119 130 133 0 +-.0702813810450389 .044 -.03
52500856328105 0 1 0 0 0 1 .00575 16 119 43 0 ?113 18 131 132 0 0 1 30 133 49 0
 18 132 134 0 +-.0685 .044 0 0 0 1 16 18 48 0 ?15 135 119 133 0 0 1 31 134 54 0
 135 133 136 0 +-.0718 .044 .0368 0 1 0 0 0 1 .0033 16 135 53 0 ?86 137 18 134 0
 0 1 30 136 59 0 137 134 138 0 +1056604299004058e-31 .044 .0335 -1 0 31540426835
94225e-30 16 137 58 0 ?83 139 135 136 0 0 1 30 138 64 0 139 136 140 0 +-.074 .04
4 153277059369891e-31 2071311613106635e-31 0 1 16 139 63 0 ?141 142 137 138 0 0
 1 30 140 69 0 142 138 143 0 +0 .044 -.0335 -1 0 0 16 142 68 0 ?144 145 139 140
 0 0 1 31 143 74 0 145 140 146 0 +-.0718 .044 -.0368 0 1 0 0 0 1 .0033 16 145 73
 0 ?74 147 142 143 0 0 1 30 146 79 0 147 143 148 0 +-.0685 .044 0 0 0 -1 16 147
 78 0 ?71 149 145 146 0 0 1 30 148 84 0 149 146 150 0 +-415056537196905e-32 .044
 -.039 -1 0 1064247531274114e-31 16 149 83 0 ?151 152 147 148 0 0 1 30 150 89 0
 152 148 153 0 +-.0033 .044 0 0 0 -1 16 152 88 0 ?154 155 149 150 0 0 1 31 153 9
9 0 155 150 156 0 +0 .044 -.0368 0 1 0 0 0 1 .0033 16 155 98 0 ?62 157 152 153 0
 0 1 30 156 104 0 157 153 158 0 +.0033 .044 0 0 0 -1 16 157 103 0 ?59 159 155 15
6 0 0 1 30 158 114 0 159 156 160 0 +0 .044 -.039 -1 0 0 16 159 113 0 ?161 162 15
7 158 0 0 1 30 160 119 0 162 158 163 0 +.0685 .044 0 0 0 -1 16 162 118 0 ?164 16
5 159 160 0 0 1 31 163 124 0 165 160 166 0 +.0718 .044 -.0368 0 1 0 0 0 1 .0033
 16 165 123 0 ?50 167 162 163 0 0 1 30 166 129 0 167 163 168 0 +0 .044 -.0335 1
 0 0 16 167 128 0 ?47 169 165 166 0 0 1 30 168 134 0 169 166 170 0 +.074 .044 -1
53277059369891e-31 -2071311613106635e-31 0 -1 16 169 133 0 ?171 172 167 168 0 0
 1 30 170 139 0 172 168 173 0 +0 .044 .0335 1 0 0 16 172 138 0 ?174 175 169 170
 0 0 1 31 173 144 0 175 170 176 0 +.0718 .044 .0368 0 1 0 0 0 1 .0033 16 175 143
 0 ?38 177 172 173 0 0 1 30 176 149 0 177 173 178 0 +.0685 .044 0 0 0 1 16 177 1
48 0 ?35 179 175 176 0 0 1 30 178 154 0 179 176 180 0 +-415056537196905e-32 .044
 .039 1 0 1064247531274114e-31 16 179 153 0 ?181 182 177 178 0 0 1 30 180 159 0
 182 178 183 0 +.0033 .044 0 0 0 1 16 182 158 0 ?184 185 179 180 0 0 1 31 183 16
9 0 185 180 11 0 +0 .044 .0368 0 1 0 0 0 1 .0033 16 185 168 0 ?23 14 182 183 0 0
 1 30 11 174 0 14 183 5 0 +-.003300000000000045 .044 3903127820947865e-33 118276
6006347822e-30 0 1 16 14 173 0 ?20 8 185 11 0 0 1 17 23 0 22 20 29 21 186 185 0
 24 +15 22 7 0 17 10 0 17 29 0 22 23 32 25 184 182 0 186 -17 186 0 0 0 0 25 23 1
85 0 0 -17 24 0 0 0 0 21 20 14 0 0 -17 32 0 22 29 35 30 181 179 0 184 -17 184 0
 0 0 0 30 29 182 0 0 +17 35 0 22 32 38 33 187 177 0 181 +17 181 0 0 0 0 33 32 17
9 0 0 +17 38 0 22 35 41 36 188 175 0 187 +17 187 0 0 0 0 36 35 177 0 0 -17 41 0
 22 38 44 39 174 172 0 188 -17 188 0 0 0 0 39 38 175 0 0 -17 44 0 22 41 47 42 17
1 169 0 174 -17 174 0 0 0 0 42 41 172 0 0 +17 47 0 22 44 50 45 189 167 0 171 +17
 171 0 0 0 0 45 44 169 0 0 +17 50 0 22 47 53 48 190 165 0 189 +17 189 0 0 0 0 48
 47 167 0 0 -17 53 0 22 50 56 51 164 162 0 190 -17 190 0 0 0 0 51 50 165 0 0 -17
 56 0 22 53 59 54 161 159 0 164 -17 164 0 0 0 0 54 53 162 0 0 +17 59 0 22 56 62
 57 191 157 0 161 +17 161 0 0 0 0 57 56 159 0 0 +17 62 0 22 59 65 60 192 155 0 1
91 +17 191 0 0 0 0 60 59 157 0 0 -17 65 0 22 62 68 63 154 152 0 192 -17 192 0 0
 0 0 63 62 155 0 0 -17 68 0 22 65 71 66 151 149 0 154 -17 154 0 0 0 0 66 65 152
 0 0 +17 71 0 22 68 74 69 193 147 0 151 +17 151 0 0 0 0 69 68 149 0 0 +17 74 0 2
2 71 77 72 194 145 0 193 +17 193 0 0 0 0 72 71 147 0 0 -17 77 0 22 74 80 75 144
 142 0 194 -17 194 0 0 0 0 75 74 145 0 0 -17 80 0 22 77 83 78 141 139 0 144 -17
 144 0 0 0 0 78 77 142 0 0 +17 83 0 22 80 86 81 195 137 0 141 +17 141 0 0 0 0 81
 80 139 0 0 +17 86 0 22 83 17 84 196 135 0 195 +17 195 0 0 0 0 84 83 137 0 0 -17
 17 0 22 86 19 87 15 18 0 196 -17 196 0 0 0 0 87 86 135 0 0 -17 19 0 22 17 20 9
 13 8 0 0 -17 13 0 0 0 0 16 19 8 0 0 +14 255 10 1 0 ?0 0 112 3 4 +0 0 0 0 3 17 9
4 0 112 113 97 92 197 131 0 118 +17 97 0 112 94 100 95 198 129 0 197 +17 197 0 0
 0 0 95 94 131 0 0 -17 118 0 0 0 0 92 113 119 0 0 -17 100 0 112 97 103 98 199 12
7 0 198 +17 198 0 0 0 0 98 97 129 0 0 -17 103 0 112 100 106 101 200 123 0 199 +1
7 199 0 0 0 0 101 100 127 0 0 -17 106 0 112 103 109 104 117 121 0 200 +17 200 0
 0 0 0 104 103 123 0 0 -17 117 0 0 0 0 107 106 121 0 0 -1 0 
